{"title":"Cut - Amir Naderi (2011) DVDRip x264","uid":10499855,"size":1895493756,"categoryP":"video","categoryS":"movies","magnet":"?xt=urn:btih:34bde1500722c86f8ab0959863d15fdadee977f2&amp;dn=Cut+-+Amir+Naderi+%282011%29+DVDRip+x264&amp;tr=udp%3A%2F%2Ftracker.openbittorrent.com%3A80&amp;tr=udp%3A%2F%2Fopen.demonii.com%3A1337&amp;tr=udp%3A%2F%2Ftracker.coppersurfer.tk%3A6969&amp;tr=udp%3A%2F%2Fexodus.desync.com%3A6969","seeders":4,"leechers":0,"uploader":"rpessoa","files":3,"time":1404678849,"description":"Shuji is an uncompromising young filmmaker at odds with Japanese society. One day he learns that his loan shark brother, who had helped to finance his films, has been executed by his own yakuza gang for failing to repay his debts. Described as a love poem to Japanese films of the past, as well as a protest at the present, Cut is an exploration of one man's obsessive relationship with cinema. From IMDb\n\nSubs: English, Portuguese.\n &lt;a href=&quot;\nhttp://www.imdb.com/title/tt1720905/&quot; rel=&quot;nofollow&quot; target=&quot;_NEW&quot;&gt;\nhttp://www.imdb.com/title/tt1720905/&lt;/a&gt;\n\nGeneral\nUnique ID : 221302069484346939865994089079884881999 (0xA67D3A6DC572CB89B26EB3A1F966204F)\nComplete name : Amir Naderi - (2011) Cut.mkv\nFormat : Matroska\nFormat version : Version 4 / Version 2\nFile size : 1.77 GiB\nDuration : 1h 55mn\nOverall bit rate : 2 184 Kbps\nEncoded date : UTC 2013-03-19 17:03:55\nWriting application : mkvmerge v6.1.0 ('Old Devil') built on Mar 2 2013 14:32:37\nWriting library : libebml v1.3.0 + libmatroska v1.4.0\n\nVideo\nID : 1\nFormat : AVC\nFormat/Info : Advanced Video Codec\nFormat profile : &lt;a class=&quot;__cf_email__&quot; href=&quot;/cdn-cgi/l/email-protection&quot; data-cfemail=&quot;8dc5e4eae5cdc1bea3bc&quot;&gt;[email&amp;#160;protected]&lt;/a&gt;&lt;script cf-hash='f9e31' type=&quot;text/javascript&quot;&gt;\n/* &lt;![CDATA[ */!function(){try{var t=&quot;currentScript&quot;in document?document.currentScript:function(){for(var t=document.getElementsByTagName(&quot;script&quot;),e=t.length;e--;)if(t[e].getAttribute(&quot;cf-hash&quot;))return t[e]}();if(t&amp;&amp;t.previousSibling){var e,r,n,i,c=t.previousSibling,a=c.getAttribute(&quot;data-cfemail&quot;);if(a){for(e=&quot;&quot;,r=parseInt(a.substr(0,2),16),n=2;a.length-n;n+=2)i=parseInt(a.substr(n,2),16)^r,e+=String.fromCharCode(i);e=document.createTextNode(e),c.parentNode.replaceChild(e,c)}}}catch(u){}}();/* ]]&gt; */&lt;/script&gt;\nFormat settings, CABAC : Yes\nFormat settings, ReFrames : 8 frames\nCodec ID : V_MPEG4/ISO/AVC\nDuration : 1h 55mn\nBit rate : 1 991 Kbps\nWidth : 720 pixels\nHeight : 554 pixels\nDisplay aspect ratio : 1.85:1\nFrame rate : 25.000 fps\nColor space : YUV\nChroma subsampling : 4:2:0\nBit depth : 8 bits\nScan type : Progressive\nBits/(Pixel*Frame) : 0.200\nStream size : 1.57 GiB (89%)\nWriting library : x264 core 130 r2273 b3065e6\nEncoding settings : cabac=1 / ref=8 / deblock=1:-3:-3 / analyse=0x3:0x133 / me=umh / subme=10 / psy=1 / psy_rd=1.00:0.00 / mixed_ref=1 / me_range=24 / chroma_me=1 / trellis=2 / 8x8dct=1 / cqm=0 / deadzone=21,11 / fast_pskip=0 / chroma_qp_offset=-2 / threads=3 / lookahead_threads=1 / sliced_threads=0 / nr=0 / decimate=0 / interlaced=0 / bluray_compat=0 / constrained_intra=0 / bframes=5 / b_pyramid=2 / b_adapt=2 / b_bias=0 / direct=3 / weightb=1 / open_gop=0 / weightp=2 / keyint=250 / keyint_min=25 / scenecut=40 / intra_refresh=0 / rc_lookahead=100 / rc=2pass / mbtree=1 / bitrate=1991 / ratetol=1.0 / qcomp=0.60 / qpmin=0 / qpmax=69 / qpstep=4 / cplxblur=20.0 / qblur=0.5 / ip_ratio=1.40 / aq=1:1.00\nLanguage : English\nDefault : Yes\nForced : No\n\nAudio\nID : 2\nFormat : AC-3\nFormat/Info : Audio Coding 3\nMode extension : CM (complete main)\nFormat settings, Endianness : Big\nCodec ID : A_AC3\nDuration : 1h 55mn\nBit rate mode : Constant\nBit rate : 192 Kbps\nChannel(s) : 2 channels\nChannel positions : Front: L R\nSampling rate : 48.0 KHz\nBit depth : 16 bits\nCompression mode : Lossy\nStream size : 159 MiB (9%)\nDefault : Yes\nForced : No\n\nThanks to encoder.","torrent":{"xt":"urn:btih:34bde1500722c86f8ab0959863d15fdadee977f2","amp;dn":"Cut+-+Amir+Naderi+%282011%29+DVDRip+x264","amp;tr":["udp%3A%2F%2Ftracker.openbittorrent.com%3A80","udp%3A%2F%2Fopen.demonii.com%3A1337","udp%3A%2F%2Ftracker.coppersurfer.tk%3A6969","udp%3A%2F%2Fexodus.desync.com%3A6969"],"infoHash":"34bde1500722c86f8ab0959863d15fdadee977f2","infoHashBuffer":{"type":"Buffer","data":[52,189,225,80,7,34,200,111,138,176,149,152,99,209,95,218,222,233,119,242]},"announce":[],"urlList":[]}}